<svg width="1724" height="102" viewBox="0 0 1724 102" fill="none" xmlns="http://www.w3.org/2000/svg">
<rect x="362.9" width="1002" height="102" fill="#F5F5F5"/>
<rect x="1364.9" y="34" width="33.9" height="33.9" fill="#F5F5F5"/>
<rect x="1432.9" y="34" width="33.9" height="33.9" fill="#F5F5F5"/>
<rect x="1398.9" y="68" width="33.9" height="33.9" fill="#F5F5F5"/>
<rect x="1398.9" width="33.9" height="33.9" fill="#F5F5F5"/>
<rect x="1500.9" y="34" width="33.9" height="33.9" fill="#F5F5F5"/>
<rect x="1466.9" y="68" width="33.9" height="33.9" fill="#F5F5F5"/>
<rect x="1466.9" width="33.9" height="33.9" fill="#F5F5F5"/>
<rect x="1568.9" y="34" width="33.9" height="33.9" fill="#F5F5F5"/>
<rect x="1534.9" y="68" width="33.9" height="33.9" fill="#F5F5F5"/>
<rect x="1534.9" width="33.9" height="33.9" fill="#F5F5F5"/>
<rect x="1636.9" y="34" width="33.9" height="33.9" fill="#F5F5F5"/>
<rect x="1602.9" y="68" width="33.9" height="33.9" fill="#F5F5F5"/>
<rect x="1602.9" width="33.9" height="33.9" fill="#F5F5F5"/>
<rect x="1670.9" y="68" width="33.9" height="33.9" fill="#F5F5F5"/>
<rect x="1670.9" width="33.9" height="33.9" fill="#F5F5F5"/>
<rect x="57" y="34" width="33.9" height="33.9" fill="#F5F5F5"/>
<rect x="23" y="68" width="33.9" height="33.9" fill="#F5F5F5"/>
<rect x="23" width="33.9" height="33.9" fill="#F5F5F5"/>
<rect x="125" y="34" width="33.9" height="33.9" fill="#F5F5F5"/>
<rect x="91" y="68" width="33.9" height="33.9" fill="#F5F5F5"/>
<rect x="91" width="33.9" height="33.9" fill="#F5F5F5"/>
<rect x="193" y="34" width="33.9" height="33.9" fill="#F5F5F5"/>
<rect x="159" y="68" width="33.9" height="33.9" fill="#F5F5F5"/>
<rect x="159" width="33.9" height="33.9" fill="#F5F5F5"/>
<rect x="261" y="34" width="33.9" height="33.9" fill="#F5F5F5"/>
<rect x="227" y="68" width="33.9" height="33.9" fill="#F5F5F5"/>
<rect x="227" width="33.9" height="33.9" fill="#F5F5F5"/>
<rect x="329" y="34" width="33.9" height="33.9" fill="#F5F5F5"/>
<rect x="295" y="68" width="33.9" height="33.9" fill="#F5F5F5"/>
<rect x="295" width="33.9" height="33.9" fill="#F5F5F5"/>
<rect x="363" y="68" width="33.9" height="33.9" fill="white"/>
<rect x="397" y="34" width="33.9" height="33.9" fill="white"/>
<rect x="1297" y="68" width="33.9" height="33.9" fill="white"/>
<rect x="1263" y="34" width="33.9" height="33.9" fill="white"/>
<rect x="-11" y="34" width="33.9" height="33.9" fill="#F5F5F5"/>
<rect x="1705" y="34" width="33.9" height="33.9" fill="#F5F5F5"/>
</svg>
