<svg width="512" height="79" viewBox="0 0 512 79" fill="none" xmlns="http://www.w3.org/2000/svg">
<g filter="url(#filter0_d_1_2)">
<path d="M18.504 69H4.296V1.992H30.216C33.48 1.992 36.392 2.504 38.952 3.528C41.512 4.488 43.656 5.896 45.384 7.752C47.176 9.608 48.52 11.848 49.416 14.472C50.312 17.096 50.76 20.04 50.76 23.304C50.76 28.04 49.736 32.104 47.688 35.496C45.64 38.888 42.728 41.128 38.952 42.216L52.104 69H36.36L25.128 44.136H18.504V69ZM26.76 33C30.152 33 32.488 32.36 33.768 31.08C35.112 29.8 35.784 27.688 35.784 24.744V21.864C35.784 18.92 35.112 16.808 33.768 15.528C32.488 14.248 30.152 13.608 26.76 13.608H18.504V33H26.76ZM83.3625 70.152C74.4025 70.152 67.7785 67.112 63.4905 61.032C59.2665 54.952 57.1545 46.44 57.1545 35.496C57.1545 24.552 59.2665 16.04 63.4905 9.96C67.7785 3.88 74.4025 0.839996 83.3625 0.839996C92.3225 0.839996 98.9145 3.88 103.139 9.96C107.427 16.04 109.571 24.552 109.571 35.496C109.571 46.44 107.427 54.952 103.139 61.032C98.9145 67.112 92.3225 70.152 83.3625 70.152ZM83.3625 58.536C87.4585 58.536 90.2745 57.032 91.8105 54.024C93.4105 50.952 94.2105 46.696 94.2105 41.256V29.64C94.2105 24.264 93.4105 20.072 91.8105 17.064C90.2745 13.992 87.4585 12.456 83.3625 12.456C79.2665 12.456 76.4185 13.992 74.8185 17.064C73.2825 20.072 72.5145 24.264 72.5145 29.64V41.352C72.5145 46.728 73.2825 50.952 74.8185 54.024C76.4185 57.032 79.2665 58.536 83.3625 58.536ZM119.517 1.992H143.037C149.629 1.992 154.653 3.592 158.109 6.792C161.629 9.992 163.389 14.344 163.389 19.848C163.389 23.688 162.429 26.76 160.509 29.064C158.653 31.304 155.965 32.936 152.445 33.96V34.536C156.605 35.56 159.805 37.352 162.045 39.912C164.349 42.472 165.501 46.024 165.501 50.568C165.501 56.2 163.709 60.68 160.125 64.008C156.605 67.336 151.645 69 145.245 69H119.517V1.992ZM140.829 58.92C144.285 58.92 146.813 58.344 148.413 57.192C150.013 56.04 150.813 53.928 150.813 50.856V48.072C150.813 45 150.013 42.888 148.413 41.736C146.813 40.584 144.285 40.008 140.829 40.008H133.533V58.92H140.829ZM139.005 30.408C142.397 30.408 144.861 29.864 146.397 28.776C147.933 27.624 148.701 25.576 148.701 22.632V19.752C148.701 16.808 147.933 14.792 146.397 13.704C144.861 12.616 142.397 12.072 139.005 12.072H133.533V30.408H139.005ZM198.488 70.152C189.528 70.152 182.904 67.112 178.616 61.032C174.392 54.952 172.28 46.44 172.28 35.496C172.28 24.552 174.392 16.04 178.616 9.96C182.904 3.88 189.528 0.839996 198.488 0.839996C207.448 0.839996 214.04 3.88 218.264 9.96C222.552 16.04 224.696 24.552 224.696 35.496C224.696 46.44 222.552 54.952 218.264 61.032C214.04 67.112 207.448 70.152 198.488 70.152ZM198.488 58.536C202.584 58.536 205.4 57.032 206.936 54.024C208.536 50.952 209.336 46.696 209.336 41.256V29.64C209.336 24.264 208.536 20.072 206.936 17.064C205.4 13.992 202.584 12.456 198.488 12.456C194.392 12.456 191.544 13.992 189.944 17.064C188.408 20.072 187.64 24.264 187.64 29.64V41.352C187.64 46.728 188.408 50.952 189.944 54.024C191.544 57.032 194.392 58.536 198.488 58.536ZM254.994 70.152C249.362 70.152 244.466 69.224 240.306 67.368C236.146 65.512 232.786 62.984 230.226 59.784L238.578 50.568C241.01 53.256 243.666 55.24 246.546 56.52C249.49 57.8 252.466 58.44 255.474 58.44C258.93 58.44 261.554 57.672 263.346 56.136C265.138 54.6 266.034 52.392 266.034 49.512C266.034 47.144 265.33 45.352 263.922 44.136C262.578 42.92 260.274 42.056 257.01 41.544L250.002 40.392C243.986 39.368 239.634 37.16 236.946 33.768C234.258 30.312 232.914 26.12 232.914 21.192C232.914 14.728 235.026 9.736 239.25 6.216C243.474 2.632 249.394 0.839996 257.01 0.839996C262.194 0.839996 266.706 1.64 270.546 3.23999C274.386 4.84 277.49 7.016 279.858 9.768L271.698 18.888C269.906 16.904 267.794 15.368 265.362 14.28C262.93 13.128 260.178 12.552 257.106 12.552C250.642 12.552 247.41 15.208 247.41 20.52C247.41 22.824 248.114 24.552 249.522 25.704C250.994 26.856 253.362 27.72 256.626 28.296L263.634 29.544C269.074 30.504 273.266 32.552 276.21 35.688C279.154 38.824 280.626 43.048 280.626 48.36C280.626 51.496 280.082 54.408 278.994 57.096C277.906 59.72 276.274 62.024 274.098 64.008C271.922 65.928 269.234 67.432 266.034 68.52C262.898 69.608 259.218 70.152 254.994 70.152ZM320.813 13.8V69H306.413V13.8H287.117V1.992H340.109V13.8H320.813ZM384.135 69L379.911 52.872H361.575L357.447 69H342.855L360.999 1.992H381.351L399.495 69H384.135ZM371.175 15.912H370.407L363.879 41.256H377.703L371.175 15.912ZM439.394 59.496H438.53C437.954 60.904 437.25 62.248 436.418 63.528C435.586 64.808 434.562 65.96 433.346 66.984C432.13 67.944 430.69 68.712 429.026 69.288C427.426 69.864 425.602 70.152 423.554 70.152C420.29 70.152 417.378 69.384 414.818 67.848C412.322 66.312 410.21 64.072 408.482 61.128C406.754 58.184 405.442 54.6 404.546 50.376C403.714 46.152 403.298 41.384 403.298 36.072C403.298 24.68 405.378 15.976 409.538 9.96C413.698 3.88 420.13 0.839996 428.834 0.839996C432.29 0.839996 435.33 1.32 437.954 2.27999C440.578 3.17599 442.818 4.488 444.674 6.216C446.594 7.88 448.162 9.896 449.378 12.264C450.594 14.632 451.554 17.256 452.258 20.136L438.818 23.4C438.434 21.992 437.986 20.648 437.474 19.368C437.026 18.024 436.418 16.84 435.65 15.816C434.882 14.792 433.922 13.992 432.77 13.416C431.618 12.776 430.21 12.456 428.546 12.456C424.898 12.456 422.306 13.96 420.77 16.968C419.298 19.976 418.562 24.2 418.562 29.64V40.584C418.562 46.024 419.362 50.376 420.962 53.64C422.626 56.904 425.538 58.536 429.698 58.536C432.962 58.536 435.394 57.576 436.994 55.656C438.594 53.736 439.394 51.272 439.394 48.264V43.368H427.97V33.192H452.258V69H439.394V59.496ZM465.18 69V1.992H507.996V13.8H479.58V29.16H507.036V40.968H479.58V57.192H507.996V69H465.18Z" fill="#E60046"/>
</g>
<defs>
<filter id="filter0_d_1_2" x="0.29599" y="0.839994" width="511.7" height="77.312" filterUnits="userSpaceOnUse" color-interpolation-filters="sRGB">
<feFlood flood-opacity="0" result="BackgroundImageFix"/>
<feColorMatrix in="SourceAlpha" type="matrix" values="0 0 0 0 0 0 0 0 0 0 0 0 0 0 0 0 0 0 127 0" result="hardAlpha"/>
<feOffset dy="4"/>
<feGaussianBlur stdDeviation="2"/>
<feComposite in2="hardAlpha" operator="out"/>
<feColorMatrix type="matrix" values="0 0 0 0 0 0 0 0 0 0 0 0 0 0 0 0 0 0 0.25 0"/>
<feBlend mode="normal" in2="BackgroundImageFix" result="effect1_dropShadow_1_2"/>
<feBlend mode="normal" in="SourceGraphic" in2="effect1_dropShadow_1_2" result="shape"/>
</filter>
</defs>
</svg>
